<?xml version="1.0" encoding="UTF-8"?> <svg xmlns="http://www.w3.org/2000/svg" xmlns:xlink="http://www.w3.org/1999/xlink" xmlns:xodm="http://www.corel.com/coreldraw/odm/2003" xml:space="preserve" width="143.612mm" height="54.0333mm" version="1.1" style="shape-rendering:geometricPrecision; text-rendering:geometricPrecision; image-rendering:optimizeQuality; fill-rule:evenodd; clip-rule:evenodd" viewBox="0 0 2477.53 932.16"> <defs> <style type="text/css"> .fil1 {fill:#E6E6E6;fill-rule:nonzero} .fil0 {fill:white;fill-rule:nonzero} </style> </defs> <g id="Layer_x0020_1"> <metadata id="CorelCorpID_0Corel-Layer"></metadata> <g id="_44829428608"> <path class="fil0" d="M1400.89 631.63l182.02 0 192.27 0 230.32 0c43,-131.83 84.65,-264.08 127.64,-395.9l-316.08 0 -52.64 160.17 137.32 0 -25.08 75.55 -242.76 0 99.11 -311.28 425.2 0 52.24 -160.17c-186.72,0 -421.75,0 -608.47,0l-201.1 631.63zm889.82 -631.63l186.82 0 -52.24 160.17 -187.22 0 52.64 -160.17zm-200 631.63l182.02 0 128.04 -395.9 -182.02 0 -128.04 395.9zm-1882.78 -631.63l659.85 0 -52.24 160.17 -660.24 0 52.64 -160.17zm-153.77 471.46l659.85 0 -52.24 160.17 -660.24 0 52.64 -160.17zm75.4 -235.73l659.85 0 -52.24 160.17 -660.24 0 52.64 -160.17zm1209.35 -235.73l182.02 0 -200.01 631.63 -182.02 0 -101.87 -363.58 -115.13 363.58 -182.02 0 200 -631.63 182.02 0 113.66 326.31 103.34 -326.31z"></path> <path class="fil0" d="M-0 791.04l22 0 0 139.68 -22 0 0 -139.68zm9.8 118.53l66.53 0 0 21.15 -66.53 0 0 -21.15zm0 -58.79l58.85 0 0 21.12 -58.85 0 0 -21.12zm0 -59.74l66.53 0 0 21.15 -66.53 0 0 -21.15zm125.84 141.12c-8.69,0 -16.13,-1.67 -22.33,-5.05 -6.16,-3.35 -10.88,-8.26 -14.1,-14.69 -3.21,-6.43 -4.82,-14.2 -4.82,-23.28l0 -98.1 22.04 0 0 98.79c0,6.56 1.67,11.64 5.02,15.21 3.35,3.57 8.07,5.38 14.2,5.38 6.17,0 10.95,-1.8 14.33,-5.38 3.38,-3.57 5.05,-8.66 5.05,-15.21l0 -98.79 22.03 0 0 98.1c0,9.08 -1.61,16.85 -4.85,23.28 -3.25,6.43 -7.97,11.34 -14.17,14.69 -6.2,3.38 -13.67,5.05 -22.39,5.05zm74.79 -80.82l36.79 0c2.92,0 5.51,-0.66 7.67,-1.93 2.2,-1.25 3.9,-3.08 5.05,-5.44 1.18,-2.39 1.77,-5.15 1.77,-8.33l0 -7.44c0,-3.31 -0.56,-6.16 -1.74,-8.62 -1.18,-2.43 -2.85,-4.33 -5.05,-5.61 -2.16,-1.31 -4.75,-1.96 -7.7,-1.96l-36.79 0 0 -21.05 36.36 0c7.67,0 14.36,1.47 20,4.39 5.64,2.95 10,7.15 13.05,12.66 3.02,5.47 4.56,11.93 4.56,19.34l0 8.17c0,7.51 -1.54,14.03 -4.59,19.61 -3.05,5.54 -7.41,9.8 -13.08,12.79 -5.64,2.98 -12.3,4.46 -19.94,4.46l-36.36 0 0 -21.02zm-9.57 -60.39l21.9 0 0 139.78 -21.9 0 0 -139.78zm37.28 77.09l21.67 -4.39 29.48 67.08 -25.15 0 -26 -62.69zm99.97 -76.99l16.72 0 42.63 139.68 -23.18 0 -27.8 -102.66 -27.8 102.66 -23.18 0 42.63 -139.68zm-19.44 92.53l56.59 0 0 20.85 -56.59 0 0 -20.85zm129.29 48.59c-7.67,0 -14.43,-1.15 -20.3,-3.44 -5.87,-2.33 -10.72,-5.71 -14.56,-10.23 -3.87,-4.49 -6.59,-10.03 -8.23,-16.62l0 0 20.79 -9.05 0 0c1.7,5.9 4.56,10.43 8.53,13.51 3.93,3.08 8.79,4.66 14.46,4.66 6.53,0 11.61,-1.44 15.18,-4.3 3.57,-2.82 5.38,-6.82 5.38,-11.97l0 -6.2c0,-3.67 -0.99,-6.66 -2.95,-8.98 -1.94,-2.33 -4.46,-4.13 -7.54,-5.47 -3.08,-1.31 -7.15,-2.72 -12.23,-4.23 -0.16,-0.07 -0.29,-0.1 -0.42,-0.13 -0.16,-0.03 -0.3,-0.07 -0.43,-0.13l-1.11 -0.36c-7.67,-2.2 -13.94,-4.49 -18.76,-6.82 -4.82,-2.33 -8.95,-6.03 -12.36,-11.05 -3.44,-5.02 -5.15,-11.8 -5.15,-20.33l0 -3.9c0,-7.9 1.67,-14.69 4.95,-20.3 3.31,-5.61 8.13,-9.9 14.46,-12.82 6.33,-2.92 14,-4.39 22.95,-4.39 6.72,0 12.69,1.11 17.9,3.31 5.18,2.23 9.54,5.47 13.05,9.8 3.54,4.33 6.1,9.67 7.74,15.97l0 0 -19.9 9.25 0 0c-1.74,-5.61 -4.26,-9.87 -7.64,-12.82 -3.34,-2.92 -7.31,-4.39 -11.87,-4.39 -6.3,0 -11.15,1.34 -14.59,4.07 -3.44,2.72 -5.15,6.52 -5.15,11.48l0 4.52c0,3.84 1.02,6.95 3.08,9.35 2.03,2.39 4.63,4.26 7.74,5.61 3.11,1.35 7.38,2.82 12.82,4.43 0.33,0.1 0.66,0.2 0.98,0.3 0.33,0.1 0.66,0.2 0.98,0.33 0.26,0.1 0.56,0.16 0.82,0.26 0.3,0.1 0.59,0.16 0.89,0.26 7.05,2.13 12.85,4.39 17.41,6.82 4.59,2.39 8.43,6.03 11.54,10.85 3.12,4.85 4.66,11.34 4.66,19.41l0 6.23c0,7.9 -1.67,14.66 -5.08,20.3 -3.38,5.64 -8.26,9.9 -14.72,12.85 -6.46,2.92 -14.23,4.39 -23.31,4.39zm86.17 -1.44l-22.23 0 0 -139.68 22.23 0 0 139.68zm56.95 -139.68l16.72 0 42.63 139.68 -23.18 0 -27.8 -102.66 -27.81 102.66 -23.18 0 42.63 -139.68zm-19.44 92.53l56.59 0 0 20.85 -56.59 0 0 -20.85zm166.53 48.59c-8.69,0 -16.23,-1.74 -22.63,-5.21 -6.43,-3.44 -11.38,-8.39 -14.82,-14.82 -3.48,-6.42 -5.18,-14 -5.18,-22.69l0 -57.12c0,-8.69 1.7,-16.26 5.18,-22.72 3.44,-6.42 8.39,-11.38 14.82,-14.82 6.4,-3.44 13.94,-5.18 22.63,-5.18 8.66,0 16.2,1.74 22.59,5.18 6.43,3.44 11.38,8.39 14.82,14.82 3.48,6.46 5.22,14.03 5.22,22.72l0 57.12c0,8.69 -1.74,16.26 -5.22,22.69 -3.44,6.43 -8.39,11.38 -14.82,14.82 -6.39,3.47 -13.93,5.21 -22.59,5.21zm0 -21.8c4.1,0 7.67,-0.85 10.72,-2.59 3.05,-1.7 5.38,-4.16 7.02,-7.38 1.64,-3.18 2.46,-6.92 2.46,-11.25l0 -56.56c0,-4.29 -0.82,-8.03 -2.46,-11.25 -1.64,-3.18 -3.97,-5.64 -7.02,-7.38 -3.05,-1.7 -6.62,-2.56 -10.72,-2.56 -4.1,0 -7.67,0.85 -10.72,2.56 -3.05,1.74 -5.38,4.2 -7.02,7.38 -1.64,3.21 -2.46,6.95 -2.46,11.25l0 56.56c0,4.33 0.82,8.07 2.46,11.25 1.64,3.21 3.97,5.67 7.02,7.38 3.05,1.74 6.62,2.59 10.72,2.59zm87.81 20.36l-22.23 0 0 -139.68 22.23 0 0 139.68zm24.4 -139.68l22 0 0 139.68 -22 0 0 -139.68zm10.29 118.63l65.09 0 0 21.05 -65.09 0 0 -21.05zm142.17 -34.92c-4.46,-5.87 -8.1,-11.38 -10.95,-16.53 -2.88,-5.12 -5.12,-10.43 -6.69,-15.87 -1.58,-5.44 -2.36,-11.08 -2.36,-16.92 0,-11.31 3.05,-20.07 9.08,-26.26 6.07,-6.2 14.66,-9.28 25.71,-9.28 11.05,0 19.58,3.02 25.57,9.02 6.03,6 9.05,14.53 9.05,25.58l0 7.02 -21.97 0 0 -7.02c0,-4.89 -1.08,-8.66 -3.28,-11.34 -2.2,-2.66 -5.31,-4 -9.38,-4 -4.23,0 -7.48,1.41 -9.84,4.23 -2.33,2.85 -3.48,6.85 -3.48,12.07 0,3.9 0.66,7.97 1.94,12.16 1.31,4.2 3.18,8.46 5.64,12.79 2.46,4.33 5.48,8.82 9.05,13.41l52.49 66.92 -26.69 0 -43.9 -55.97zm11.57 -1.84c-7.51,0 -13.35,1.8 -17.44,5.38 -4.13,3.61 -6.16,8.69 -6.16,15.25 0,6 1.84,10.66 5.58,13.94 3.74,3.31 8.98,4.98 15.77,4.98 6.59,0 12.2,-2.13 16.85,-6.36 4.69,-4.23 8.23,-10.33 10.69,-18.33 2.43,-8 3.67,-17.57 3.67,-28.72l20.99 0c0,15.31 -2.2,28.46 -6.59,39.38 -4.39,10.95 -10.79,19.31 -19.21,25.08 -8.43,5.77 -18.56,8.66 -30.46,8.66 -8.1,0 -15.02,-1.51 -20.76,-4.52 -5.77,-3.05 -10.16,-7.44 -13.18,-13.21 -3.02,-5.8 -4.53,-12.75 -4.53,-20.89 0,-10.98 3.21,-19.8 9.64,-26.39 6.43,-6.62 15.48,-10.43 27.15,-11.44l8 17.21zm187.39 -18.2l0 33.61c0,8.89 -1.7,16.66 -5.08,23.28 -3.41,6.59 -8.26,11.67 -14.59,15.21 -6.3,3.57 -13.74,5.34 -22.26,5.34 -8.69,0 -16.2,-1.67 -22.59,-5.05 -6.43,-3.35 -11.35,-8.17 -14.79,-14.39 -3.44,-6.26 -5.18,-13.64 -5.18,-22.13l0 -56.92c0,-8.98 1.7,-16.79 5.11,-23.41 3.41,-6.62 8.26,-11.71 14.56,-15.28 6.33,-3.57 13.74,-5.38 22.3,-5.38 8.33,0 15.48,1.61 21.41,4.82 5.97,3.21 10.62,8 14,14.33 3.38,6.36 5.38,14.17 5.97,23.48l0 0 -23.25 0 0 0c-0.39,-4.56 -1.38,-8.36 -2.95,-11.41 -1.57,-3.02 -3.64,-5.31 -6.23,-6.82 -2.59,-1.54 -5.57,-2.29 -8.95,-2.29 -3.94,0 -7.38,0.89 -10.3,2.69 -2.95,1.8 -5.21,4.33 -6.79,7.64 -1.61,3.31 -2.39,7.18 -2.39,11.64l0 56.92c0,3.97 0.82,7.41 2.43,10.33 1.64,2.95 3.97,5.18 7.02,6.79 3.02,1.58 6.56,2.36 10.63,2.36 4,0 7.48,-0.85 10.46,-2.52 2.95,-1.71 5.25,-4.16 6.85,-7.38 1.61,-3.21 2.39,-7.05 2.39,-11.54l0 -12.82 -19.25 0 0 -21.08 41.48 0zm53.64 -63.68l16.72 0 42.63 139.68 -23.18 0 -27.8 -102.66 -27.81 102.66 -23.18 0 42.63 -139.68zm-19.44 92.53l56.59 0 0 20.85 -56.59 0 0 -20.85zm129.29 48.59c-7.67,0 -14.43,-1.15 -20.3,-3.44 -5.87,-2.33 -10.72,-5.71 -14.56,-10.23 -3.87,-4.49 -6.59,-10.03 -8.23,-16.62l0 0 20.79 -9.05 0 0c1.7,5.9 4.56,10.43 8.52,13.51 3.94,3.08 8.79,4.66 14.46,4.66 6.52,0 11.61,-1.44 15.18,-4.3 3.57,-2.82 5.38,-6.82 5.38,-11.97l0 -6.2c0,-3.67 -0.98,-6.66 -2.95,-8.98 -1.94,-2.33 -4.46,-4.13 -7.54,-5.47 -3.08,-1.31 -7.15,-2.72 -12.23,-4.23 -0.16,-0.07 -0.29,-0.1 -0.43,-0.13 -0.16,-0.03 -0.3,-0.07 -0.43,-0.13l-1.11 -0.36c-7.67,-2.2 -13.93,-4.49 -18.76,-6.82 -4.82,-2.33 -8.95,-6.03 -12.36,-11.05 -3.44,-5.02 -5.15,-11.8 -5.15,-20.33l0 -3.9c0,-7.9 1.67,-14.69 4.95,-20.3 3.31,-5.61 8.13,-9.9 14.46,-12.82 6.33,-2.92 14,-4.39 22.95,-4.39 6.72,0 12.69,1.11 17.9,3.31 5.18,2.23 9.54,5.47 13.05,9.8 3.54,4.33 6.1,9.67 7.74,15.97l0 0 -19.9 9.25 0 0c-1.74,-5.61 -4.26,-9.87 -7.64,-12.82 -3.34,-2.92 -7.31,-4.39 -11.87,-4.39 -6.3,0 -11.15,1.34 -14.59,4.07 -3.44,2.72 -5.15,6.52 -5.15,11.48l0 4.52c0,3.84 1.02,6.95 3.08,9.35 2.03,2.39 4.62,4.26 7.74,5.61 3.12,1.35 7.38,2.82 12.82,4.43 0.33,0.1 0.66,0.2 0.99,0.3 0.33,0.1 0.66,0.2 0.98,0.33 0.26,0.1 0.56,0.16 0.82,0.26 0.3,0.1 0.59,0.16 0.89,0.26 7.05,2.13 12.85,4.39 17.41,6.82 4.59,2.39 8.43,6.03 11.54,10.85 3.11,4.85 4.66,11.34 4.66,19.41l0 6.23c0,7.9 -1.67,14.66 -5.08,20.3 -3.38,5.64 -8.26,9.9 -14.72,12.85 -6.46,2.92 -14.23,4.39 -23.31,4.39zm96.14 -141.12l22 0 0 139.68 -22 0 0 -139.68zm9.8 118.53l66.53 0 0 21.15 -66.53 0 0 -21.15zm0 -58.79l58.85 0 0 21.12 -58.85 0 0 -21.12zm0 -59.74l66.53 0 0 21.15 -66.53 0 0 -21.15zm86.17 0l21.18 0 47.84 103.81 -2.56 2.82 0 -106.63 20.92 0 0 139.58 -21.35 0 -47.61 -100.83 2.53 -2.82 0 103.64 -20.95 0 0 -139.58zm195.81 63.68l0 33.61c0,8.89 -1.7,16.66 -5.08,23.28 -3.41,6.59 -8.26,11.67 -14.59,15.21 -6.3,3.57 -13.74,5.34 -22.26,5.34 -8.69,0 -16.2,-1.67 -22.59,-5.05 -6.43,-3.35 -11.34,-8.17 -14.79,-14.39 -3.45,-6.26 -5.18,-13.64 -5.18,-22.13l0 -56.92c0,-8.98 1.7,-16.79 5.12,-23.41 3.41,-6.62 8.26,-11.71 14.56,-15.28 6.33,-3.57 13.74,-5.38 22.3,-5.38 8.33,0 15.47,1.61 21.41,4.82 5.97,3.21 10.62,8 14,14.33 3.38,6.36 5.38,14.17 5.97,23.48l0 0 -23.25 0 0 0c-0.39,-4.56 -1.38,-8.36 -2.95,-11.41 -1.57,-3.02 -3.64,-5.31 -6.23,-6.82 -2.59,-1.54 -5.58,-2.29 -8.95,-2.29 -3.94,0 -7.38,0.89 -10.3,2.69 -2.95,1.8 -5.21,4.33 -6.79,7.64 -1.61,3.31 -2.39,7.18 -2.39,11.64l0 56.92c0,3.97 0.82,7.41 2.43,10.33 1.64,2.95 3.97,5.18 7.02,6.79 3.02,1.58 6.56,2.36 10.62,2.36 4,0 7.48,-0.85 10.46,-2.52 2.95,-1.71 5.25,-4.16 6.85,-7.38 1.6,-3.21 2.39,-7.05 2.39,-11.54l0 -12.82 -19.25 0 0 -21.08 41.48 0zm45.21 76l-22.23 0 0 -139.68 22.23 0 0 139.68zm24.4 -139.68l21.18 0 47.84 103.81 -2.56 2.82 0 -106.63 20.92 0 0 139.58 -21.35 0 -47.61 -100.83 2.52 -2.82 0 103.64 -20.95 0 0 -139.58zm112.76 0l22 0 0 139.68 -22 0 0 -139.68zm9.81 118.53l66.53 0 0 21.15 -66.53 0 0 -21.15zm0 -58.79l58.85 0 0 21.12 -58.85 0 0 -21.12zm0 -59.74l66.53 0 0 21.15 -66.53 0 0 -21.15zm86.17 0l22 0 0 139.68 -22 0 0 -139.68zm9.8 118.53l66.53 0 0 21.15 -66.53 0 0 -21.15zm0 -58.79l58.85 0 0 21.12 -58.85 0 0 -21.12zm0 -59.74l66.53 0 0 21.15 -66.53 0 0 -21.15zm95.74 60.3l36.79 0c2.92,0 5.51,-0.66 7.67,-1.93 2.2,-1.25 3.9,-3.08 5.05,-5.44 1.18,-2.39 1.77,-5.15 1.77,-8.33l0 -7.44c0,-3.31 -0.56,-6.16 -1.74,-8.62 -1.18,-2.43 -2.85,-4.33 -5.05,-5.61 -2.16,-1.31 -4.75,-1.96 -7.7,-1.96l-36.79 0 0 -21.05 36.36 0c7.67,0 14.36,1.47 20,4.39 5.64,2.95 10,7.15 13.05,12.66 3.02,5.47 4.56,11.93 4.56,19.34l0 8.17c0,7.51 -1.54,14.03 -4.59,19.61 -3.05,5.54 -7.41,9.8 -13.08,12.79 -5.64,2.98 -12.3,4.46 -19.94,4.46l-36.36 0 0 -21.02zm-9.57 -60.39l21.9 0 0 139.78 -21.9 0 0 -139.78zm37.28 77.09l21.67 -4.39 29.48 67.08 -25.15 0 -26 -62.69zm92.53 62.69l-22.23 0 0 -139.68 22.23 0 0 139.68zm24.39 -139.68l21.18 0 47.84 103.81 -2.56 2.82 0 -106.63 20.92 0 0 139.58 -21.35 0 -47.61 -100.83 2.53 -2.82 0 103.64 -20.95 0 0 -139.58zm195.81 63.68l0 33.61c0,8.89 -1.7,16.66 -5.08,23.28 -3.41,6.59 -8.26,11.67 -14.59,15.21 -6.3,3.57 -13.74,5.34 -22.26,5.34 -8.69,0 -16.2,-1.67 -22.59,-5.05 -6.43,-3.35 -11.34,-8.17 -14.79,-14.39 -3.45,-6.26 -5.18,-13.64 -5.18,-22.13l0 -56.92c0,-8.98 1.7,-16.79 5.12,-23.41 3.41,-6.62 8.26,-11.71 14.56,-15.28 6.33,-3.57 13.74,-5.38 22.3,-5.38 8.33,0 15.47,1.61 21.41,4.82 5.97,3.21 10.62,8 14,14.33 3.38,6.36 5.38,14.17 5.97,23.48l0 0 -23.25 0 0 0c-0.39,-4.56 -1.38,-8.36 -2.95,-11.41 -1.57,-3.02 -3.64,-5.31 -6.23,-6.82 -2.59,-1.54 -5.58,-2.29 -8.95,-2.29 -3.94,0 -7.38,0.89 -10.3,2.69 -2.95,1.8 -5.21,4.33 -6.79,7.64 -1.61,3.31 -2.39,7.18 -2.39,11.64l0 56.92c0,3.97 0.82,7.41 2.43,10.33 1.64,2.95 3.97,5.18 7.02,6.79 3.02,1.58 6.56,2.36 10.62,2.36 4,0 7.48,-0.85 10.46,-2.52 2.95,-1.71 5.25,-4.16 6.85,-7.38 1.6,-3.21 2.39,-7.05 2.39,-11.54l0 -12.82 -19.25 0 0 -21.08 41.48 0z"></path> <path class="fil1" d="M1400.89 631.63l20.51 0 194.3 -610.26 587.79 0 6.97 -21.37c-186.72,0 -421.75,0 -608.47,0l-201.1 631.63zm725.3 -374.53l6.96 -21.37 -316.08 0 -52.64 160.17 20.73 0 45.62 -138.8 295.41 0zm-232.79 163.94l-16.74 50.41 -217.99 0 -8 25.14 20.51 0 1.2 -3.77 217.99 0 16.74 -50.41 4.3 0 7.1 -21.37 -25.11 0zm397.31 -421.04l186.82 0 -6.97 21.37 -166.14 0 -45.62 138.8 -20.73 0 52.64 -160.17zm-200 631.63l20.62 0 121.13 -374.53 161.4 0 6.91 -21.37 -182.02 0 -128.04 395.9zm-1882.78 -631.63l659.85 0 -6.97 21.37 -639.17 0 -45.62 138.8 -20.73 0 52.64 -160.17zm-153.77 471.46l659.85 0 -6.97 21.37 -639.17 0 -45.62 138.8 -20.73 0 52.64 -160.17zm75.4 -235.73l659.85 0 -6.97 21.37 -639.17 0 -45.62 138.8 -20.73 0 52.64 -160.17zm1209.35 -235.73l182.02 0 -6.77 21.37 -161.54 0 -99.52 314.28 2.22 6.38 -2.98 9.42 -12.95 -37.17 99.52 -314.28zm-192.28 631.63l-7.72 0 -90.26 -322.16 5.15 -16.28 9.61 34.31 -1.06 3.34 84.27 300.79zm-386.27 0l-20.48 0 200 -631.63 182.02 0 7.44 21.37 -175.76 0 -193.24 610.26z"></path> </g> </g> </svg> 